<?xml version="1.0" standalone="no"?>
<!DOCTYPE svg PUBLIC "-//W3C//DTD SVG 20010904//EN"
 "http://www.w3.org/TR/2001/REC-SVG-20010904/DTD/svg10.dtd">
<svg version="1.0" xmlns="http://www.w3.org/2000/svg"
 width="512.000000pt" height="512.000000pt" viewBox="0 0 512.000000 512.000000"
 preserveAspectRatio="xMidYMid meet">
<metadata>
Created by potrace 1.14, written by Peter Selinger 2001-2017
</metadata>
<g transform="translate(0.000000,512.000000) scale(0.100000,-0.100000)"
fill="#000000" stroke="none">
<path d="M1968 4865 c-2 -2 -23 -4 -48 -6 -94 -5 -209 -64 -269 -136 -105
-128 -125 -297 -51 -442 30 -60 98 -134 143 -157 15 -8 27 -16 27 -18 0 -2
-237 -4 -527 -3 -291 0 -540 -2 -555 -6 -60 -16 -56 79 -56 -1626 0 -859 -3
-1565 -5 -1568 -3 -3 -132 -5 -287 -5 l-281 0 -30 -25 c-26 -23 -30 -31 -26
-67 24 -223 212 -447 434 -516 33 -10 81 -22 105 -26 54 -9 3888 -12 3983 -2
113 11 149 20 235 61 172 82 313 266 349 457 6 36 10 605 11 1663 l0 1608 -24
24 c-16 16 -37 25 -58 26 -18 0 -611 0 -1318 0 l-1286 1 -72 69 c-68 66 -71
71 -58 92 63 99 65 276 4 390 -30 56 -117 140 -173 166 -43 20 -160 52 -167
46z m227 -755 c4 -6 -7 -10 -27 -10 -25 0 -29 3 -18 10 19 13 37 13 45 0z"/>
</g>
</svg>
